<?xml version="1.0" encoding="UTF-8"?>
<svg id="Layer_3" data-name="Layer 3" xmlns="http://www.w3.org/2000/svg" viewBox="0 0 180 180">
  <defs>
    <style>
      .cls-1 {
        fill: #335267;
      }
    </style>
  </defs>
  <path class="cls-1" d="M116.8,92.9l27.6-3.3-27.6-3.3c-.6-4.8-2.7-9.2-5.7-12.7l9.4-11.9-11.9,9.4c-3.5-3-7.9-5.1-12.7-5.7l-3.3-27.6-3.3,27.6c-4.8.6-9.2,2.7-12.7,5.7l-11.9-9.4,9.4,11.9c-3,3.5-5.1,7.9-5.7,12.7l-27.6,3.3,27.6,3.3c.6,4.8,2.7,9.2,5.7,12.7l-9.4,11.9,11.9-9.4c3.5,3,7.9,5.1,12.7,5.7l3.3,27.6,3.3-27.6c4.8-.6,9.2-2.7,12.7-5.7l11.9,9.4-9.4-11.9c3-3.5,5.1-7.9,5.7-12.7Z"/>
</svg>