<?xml version="1.0" encoding="UTF-8"?>
<svg id="Layer_3" data-name="Layer 3" xmlns="http://www.w3.org/2000/svg" viewBox="0 0 1920 591">
  <defs>
    <style>
      .cls-1 {
        fill: #335267;
      }

      .cls-2 {
        fill: #dabd9c;
      }
    </style>
  </defs>
  <g>
    <path class="cls-2" d="M335.9,301.6c-3.3,1.3-8.2,4-13.8,7-14.7,8.1-34.9,19.1-52.4,19.1s-16.2-.4-21.1-1.3c.4,1.9,1.1,4,2,6.2,1,2.2,2.1,4.3,3.4,6.1,1.2.8,6.5,3.7,16.3,4.1h4.6c6.8-.3,15.2-1.7,25.3-5.5,17.4-6.5,31.6-1.9,36.5.2,2-3.3,4.6-8.7,7.7-17.1,3.5-9.6,7.8-18.3,10.8-24-5.4,1-12.8,2.6-19.3,5.1Z"/>
    <path class="cls-1" d="M378.6,306.3l93.4-11-93.4-11c-2.2-16.3-9.1-31.1-19.4-43l31.8-40.3-40.3,31.8c-11.9-10.3-26.7-17.2-43-19.4l-11-93.4-11,93.4c-16.3,2.2-31.1,9.1-43,19.4l-40.3-31.8,31.8,40.3c-10.3,11.9-17.2,26.7-19.4,43l-93.4,11,93.4,11c2.2,16.3,9.1,31.1,19.4,43l-31.8,40.3,40.3-31.8c11.9,10.3,26.7,17.2,43,19.4l11,93.4,11-93.4c16.3-2.2,31.1-9.1,43-19.4l40.3,31.8-31.8-40.3c10.3-11.9,17.2-26.7,19.4-43ZM256.1,260.8c0-4.5-2.4-9.7-5.1-12.5h27c.4,2.6.5,6.4-1.7,10.8-1.6,3.2-5.5,6.6-8.8,8.5l4.4,4.4c-8.7-.4-18.9,1.8-22.5,3.3,1.6-1.3,6.7-6.4,6.7-14.6ZM254.7,293.9c.4-8.7-4.1-16.6-5.3-18.5h25c1.7,3.1,5.3,8.6,5.3,18,0,7.4-1.7,10.7-2,12.1-5.2.4-10.9,2.2-16.5,4.2-7.2,2.5-13,6.4-16.2,8.3,1.5-1.8,9-8.9,9.7-24.1ZM348,321.8c-9,25-15,25-15,25h-76.9c-8.4-7.2-11.7-17.9-12.3-25.8,0,0,2.5,2.9,25.9,2.9s45.7-16.5,59.9-23.7c-6.4-.2-14,.2-21.1,2-17.2,4.3-27.5,11.6-34.5,17,3.4-4,9.8-12,9.8-25.5s-6.7-21.9-10-25.4c1-.8,6.4-4.8,8-12.7,1.3-6.3-.1-12-3.3-16.9,7.2,0,34.6,0,42.8,0,2.5,1.3,8.2,4.7,11,11.8,2.9,7.1,1.3,13.7.3,16.3-4.3-2.8-13.5-3.8-23.5-3.6-13.9.2-24.5,4-30.6,5.2,0,0,54.1-1.6,54.1-1.6,2,1.1,11.4,7.1,11.6,20.1,0,3-.7,6.1-1.7,8.6,10.3-2.8,19.9-3.8,19.9-3.8,0,0-8.6,13.7-14.5,30.3Z"/>
  </g>
  <g>
    <path class="cls-1" d="M492.2,352.3c6.2-3.3,8.5-7.3,8.5-16.5v-80.7c0-9.2-2.3-13.2-8.5-16.5l.2-1.5h81.7l6.5,27.2-1.3.7c-7.3-7.5-15.8-10.5-26-10.5h-32.3v31.3h26c7.7,0,12-2.2,15.5-7.5l1.3.2v31.7l-1.3.2c-3.5-5.3-7.8-7.5-15.5-7.5h-26v33c0,9.3,2.8,13.2,8.8,16.5l-.2,1.5h-37.2l-.2-1.5Z"/>
    <path class="cls-1" d="M590.2,295.5c0-33.8,26.3-60.3,60.2-60.3s60.2,26.5,60.2,60.3-26.3,60.3-60.2,60.3-60.2-26.5-60.2-60.3ZM650.4,336.7c22.3,0,39.3-18.2,39.3-41.2s-17-41.2-39.3-41.2-39.3,18.2-39.3,41.2,17,41.2,39.3,41.2Z"/>
    <path class="cls-1" d="M732.9,312v-56.8c0-9.2-2.3-13.2-8.5-16.5l.2-1.5h36.8l.2,1.5c-6.2,3.3-8.5,7.3-8.5,16.5v55.7c0,15.3,10.7,25.8,26,25.8s26-10.5,26-25.8v-55.7c0-9.2-2.3-13.2-8.3-16.5l.2-1.5h36.7l.2,1.5c-6,3.3-8.3,7.3-8.3,16.5v56.8c0,25.8-18.8,43.5-46.2,43.5s-46.3-17.7-46.3-43.5Z"/>
    <path class="cls-1" d="M851.3,352.3c6.2-3.3,8.5-7.3,8.5-16.5v-77.8c0-9.7-4.2-15.5-9.7-19.2l.3-1.7h26.5l59,80v-62c0-9.2-2.3-13.2-8.3-16.5l.2-1.5h35.8l.2,1.5c-6.2,3.3-8.5,7.3-8.5,16.5v98.7h-16l-60.2-82.3v64.3c0,9.2,2.3,13.2,8.3,16.5l-.2,1.5h-35.8l-.2-1.5Z"/>
    <path class="cls-1" d="M983.2,352.3c6.2-3.3,8.5-7.3,8.5-16.5v-80.7c0-9.2-2.3-13.2-8.5-16.5l.2-1.5h46.8c33.8,0,59.8,25.3,59.8,58.3s-26,58.3-59.8,58.3h-46.8l-.2-1.5ZM1029.5,335.5c22.5,0,39.7-17.2,39.7-40s-17.2-40-39.7-40h-17.7v80h17.7Z"/>
    <path class="cls-1" d="M1105.6,352.3c6.2-3.3,8.5-7.3,8.5-16.5v-80.7c0-9.2-2.3-13.2-8.5-16.5l.2-1.5h80.3l6.7,26.3-1.5.7c-6.8-6.8-14.8-9.7-25.8-9.7h-31.2v29.3h25.7c7.7,0,12-2.2,15.3-7l1.5.2v30.8l-1.5.2c-3.3-4.8-7.7-7.2-15.3-7.2h-25.7v35.7h34.8c10.7,0,18.7-3.2,26-10.5l1.3.7-6.5,27.2h-84.2l-.2-1.5Z"/>
    <path class="cls-1" d="M1210.9,352.3c6.2-3.3,8.5-7.3,8.5-16.5v-80.7c0-9.2-2.3-13.2-8.5-16.5l.2-1.5h56.8c22.2,0,38.3,14.8,38.3,35s-10.2,29.2-25.3,33.8l17.5,27c5.5,8.5,11,14.5,18.3,19.3l-.2,1.5h-28.7l-11.7-19.5-16.3-26.5h-20.3v28c0,9.2,2.3,13.2,8,16.5l-.2,1.5h-36.3l-.2-1.5ZM1266.8,290.3c10.7,0,18.7-7.7,18.7-18s-8-17.8-18.7-17.8h-27.2v35.8h27.2Z"/>
    <path class="cls-1" d="M1329.3,352.3c6.2-3.3,8.5-7.3,8.5-16.5v-80.7c0-9.2-2.3-13.2-8.5-16.5l.2-1.5h54.8c23,0,38.8,15.3,38.8,36.2s-15.8,36.7-38.8,36.7h-26.3v25.8c0,9.2,2.7,13.2,9.7,16.5l-.2,1.5h-38l-.2-1.5ZM1382.9,292.5c11.5,0,19.5-8,19.5-19s-8-19-19.5-19h-25v38h25Z"/>
    <path class="cls-1" d="M1435.9,295.5c0-33.8,26.3-60.3,60.2-60.3s60.2,26.5,60.2,60.3-26.3,60.3-60.2,60.3-60.2-26.5-60.2-60.3ZM1496.1,336.7c22.3,0,39.3-18.2,39.3-41.2s-17-41.2-39.3-41.2-39.3,18.2-39.3,41.2,17,41.2,39.3,41.2Z"/>
    <path class="cls-1" d="M1572,352.3c6.2-3.3,8.5-7.3,8.5-16.5v-80.7c0-9.2-2.3-13.2-8.5-16.5l.2-1.5h56.8c22.2,0,38.3,14.8,38.3,35s-10.2,29.2-25.3,33.8l17.5,27c5.5,8.5,11,14.5,18.3,19.3l-.2,1.5h-28.7l-11.7-19.5-16.3-26.5h-20.3v28c0,9.2,2.3,13.2,8,16.5l-.2,1.5h-36.3l-.2-1.5ZM1627.9,290.3c10.7,0,18.7-7.7,18.7-18s-8-17.8-18.7-17.8h-27.2v35.8h27.2Z"/>
    <path class="cls-1" d="M1720.2,335v-81h-12c-12,0-18.8,3.8-25.7,10l-1.5-.7,6.5-26.2h85.5l6.5,26.2-1.5.7c-6.8-6.2-13.7-10-25.7-10h-12v81c0,9.8,3.2,13.8,9.7,17.3l-.2,1.5h-39.2l-.2-1.5c6.5-3.5,9.7-7.5,9.7-17.3Z"/>
  </g>
</svg>